<?xml version="1.0" encoding="utf-8"?>
<!-- Generator: Adobe Illustrator 19.1.0, SVG Export Plug-In . SVG Version: 6.00 Build 0)  -->
<svg version="1.1" xmlns="http://www.w3.org/2000/svg" xmlns:xlink="http://www.w3.org/1999/xlink" x="0px" y="0px"
	 viewBox="0 0 194 67" style="enable-background:new 0 0 194 67;" xml:space="preserve">
<style type="text/css">
	.st0{fill:#FFFFFF;}
	.st1{fill:#1CA7DC;}
	.st2{fill-rule:evenodd;clip-rule:evenodd;fill:#FFFFFF;}
</style>
<g id="Layer_1">
</g>
<g id="Layer_2">
	<g>
		<g>
			<g>
				<path class="st0" d="M61.7,29.6l-2.2,0c-2.4,0-4,1.4-4,3.7V35h-2.2c-0.2,0-0.3,0.1-0.3,0.3v2.5c0,0.2,0.2,0.3,0.3,0.3h2.2v6.2
					c0,0.2,0.2,0.3,0.3,0.3h2.8c0.2,0,0.3-0.1,0.3-0.3V38h2.5c0.2,0,0.3-0.1,0.3-0.3l0-2.5c0-0.1,0-0.2-0.1-0.2S61.7,35,61.6,35H59
					v-1.4c0-0.7,0.2-1,1.2-1l1.5,0c0.2,0,0.3-0.1,0.3-0.3v-2.3C62,29.7,61.9,29.6,61.7,29.6z M97.5,30.8c-0.7,0.4-1.5,0.7-2.2,0.8
					c-0.7-0.7-1.5-1.1-2.5-1.1c-1,0-1.8,0.4-2.5,1c-0.7,0.7-1,1.5-1,2.5c0,0.3,0,0.6,0.1,0.8c-2.9-0.1-5.3-1.3-7.2-3.7
					c-0.3,0.6-0.5,1.2-0.5,1.8c0,1.2,0.5,2.2,1.6,3c-0.6-0.1-1.1-0.2-1.6-0.5c0,0.9,0.3,1.6,0.8,2.3c0.5,0.6,1.2,1.1,2,1.2
					c-0.3,0.1-0.6,0.1-0.9,0.1c-0.3,0-0.5,0-0.6-0.1c0.2,0.7,0.6,1.3,1.2,1.8c0.6,0.5,1.3,0.7,2,0.7c-1.3,1-2.7,1.5-4.3,1.5
					c-0.4,0-0.7,0-0.9,0c1.6,1.1,3.4,1.6,5.4,1.6c2,0,3.8-0.5,5.4-1.6c1.6-1,2.7-2.3,3.4-3.8c0.7-1.5,1.1-3.1,1.1-4.7v-0.4
					c0.7-0.5,1.3-1.2,1.7-1.8c-0.6,0.3-1.3,0.5-2,0.6C96.8,32.3,97.3,31.7,97.5,30.8z M126.4,30.6h-9.7c-0.5,0-0.8,0.2-1.2,0.5
					c-0.3,0.3-0.5,0.7-0.5,1.2v9.7c0,0.5,0.2,0.8,0.5,1.2c0.3,0.3,0.7,0.5,1.2,0.5h9.7c0.5,0,0.8-0.2,1.2-0.5
					c0.3-0.3,0.5-0.7,0.5-1.2v-9.7c0-0.5-0.2-0.8-0.5-1.2C127.2,30.7,126.8,30.6,126.4,30.6z M119.7,35.2c0.5-0.5,1.1-0.7,1.8-0.7
					c0.7,0,1.3,0.2,1.8,0.7c0.5,0.5,0.8,1.1,0.8,1.8c0,0.7-0.3,1.3-0.8,1.8c-0.5,0.5-1.1,0.7-1.8,0.7c-0.7,0-1.3-0.2-1.8-0.7
					c-0.5-0.5-0.8-1.1-0.8-1.8C118.9,36.3,119.2,35.7,119.7,35.2z M126.6,41.5c0,0.1-0.1,0.3-0.2,0.4c-0.1,0.1-0.2,0.1-0.4,0.1h-9
					c-0.1,0-0.3,0-0.4-0.1c-0.1-0.1-0.1-0.2-0.1-0.4v-5.5h1.2c-0.1,0.4-0.2,0.7-0.2,1.1c0,1.1,0.4,2,1.2,2.8
					c0.8,0.8,1.7,1.1,2.9,1.1c0.7,0,1.4-0.2,2-0.5c0.6-0.4,1.1-0.8,1.5-1.4c0.4-0.6,0.5-1.3,0.5-2c0-0.4-0.1-0.8-0.2-1.1h1.1V41.5z
					 M126.6,34c0,0.2-0.1,0.3-0.2,0.4c-0.1,0.1-0.3,0.2-0.4,0.2h-1.5c-0.2,0-0.3-0.1-0.4-0.2s-0.2-0.3-0.2-0.4v-1.4
					c0-0.2,0.1-0.3,0.2-0.4c0.1-0.1,0.3-0.2,0.4-0.2h1.5c0.2,0,0.3,0.1,0.4,0.2c0.1,0.1,0.2,0.3,0.2,0.4V34z M159.3,30.8
					c-4.6-0.3-5.9-0.4-10.6,0c-1.4,0.1-2.4,1.8-2.5,3c-0.2,2.6-0.2,4,0,6.6c0.1,1.2,1.1,2.8,2.5,3c4.7,0.3,6.1,0.3,10.6,0
					c1.4-0.2,2.4-1.8,2.5-3c0.2-2.6,0.2-4.2,0-6.7C161.7,32.4,160.9,30.9,159.3,30.8z M151.5,40.3v-6.6l6.2,3.3L151.5,40.3z
					 M190.1,31.4c-2.5-2.4-6.6-2.4-9.2,0c-2.5,2.4-2.6,6.4,0,8.8l4.6,4.4l4.6-4.4C192.7,37.7,192.7,33.8,190.1,31.4z M185.5,41.1
					c-3.1,0-5.6-2.4-5.6-5.3c0-2.9,2.5-5.3,5.6-5.3c3.1,0,5.6,2.4,5.6,5.3C191.1,38.7,188.6,41.1,185.5,41.1z M188.9,34.2
					c-0.7,0-1.4-0.1-2-0.1c0,0,0,0,0,0c-0.3-0.6-0.5-1.3-0.8-1.9c-0.1-0.3-0.6-0.3-0.8-0.1c-0.1,0.1-0.2,0.2-0.2,0.3
					c-0.3,0.6-0.5,1.2-0.8,1.8c-0.7,0.1-1.5,0.1-2.2,0.2c-0.3,0-0.5,0.4-0.4,0.7c0,0.1,0.2,0.2,0.3,0.3c0.5,0.4,1,0.8,1.5,1.2
					c-0.2,0.7-0.4,1.4-0.5,2.1c0,0.2,0.1,0.4,0.2,0.5c0.2,0.1,0.4,0.1,0.6,0c0.6-0.4,1.2-0.7,1.8-1.1c0.1,0,0.1,0,0.1,0.1
					c0.5,0.3,1.1,0.6,1.6,1c0.1,0.1,0.2,0.1,0.3,0.1c0.4,0,0.6-0.4,0.5-0.7c-0.2-0.6-0.3-1.3-0.5-1.9c0,0,0,0,0,0
					c0.5-0.4,1.1-0.9,1.6-1.3c0.2-0.1,0.2-0.4,0.1-0.6C189.3,34.3,189.1,34.2,188.9,34.2z"/>
			</g>
		</g>
		<g>
			<g>
				<path class="st1" d="M61.7,47.5l-2.2,0c-2.4,0-4,1.4-4,3.7v1.7h-2.2c-0.2,0-0.3,0.1-0.3,0.3v2.5c0,0.2,0.2,0.3,0.3,0.3h2.2v6.2
					c0,0.2,0.2,0.3,0.3,0.3h2.8c0.2,0,0.3-0.1,0.3-0.3v-6.2h2.5c0.2,0,0.3-0.1,0.3-0.3l0-2.5c0-0.1,0-0.2-0.1-0.2
					c-0.1-0.1-0.2-0.1-0.2-0.1H59v-1.4c0-0.7,0.2-1,1.2-1l1.5,0c0.2,0,0.3-0.1,0.3-0.3v-2.3C62,47.6,61.9,47.5,61.7,47.5z
					 M97.5,48.7c-0.7,0.4-1.5,0.7-2.2,0.8c-0.7-0.7-1.5-1.1-2.5-1.1c-1,0-1.8,0.4-2.5,1c-0.7,0.7-1,1.5-1,2.5c0,0.3,0,0.6,0.1,0.8
					c-2.9-0.1-5.3-1.3-7.2-3.7c-0.3,0.6-0.5,1.2-0.5,1.8c0,1.2,0.5,2.2,1.6,3c-0.6-0.1-1.1-0.2-1.6-0.5c0,0.9,0.3,1.6,0.8,2.3
					c0.5,0.6,1.2,1.1,2,1.2C84.2,57,83.9,57,83.6,57c-0.3,0-0.5,0-0.6-0.1c0.2,0.7,0.6,1.3,1.2,1.8c0.6,0.5,1.3,0.7,2,0.7
					c-1.3,1-2.7,1.5-4.3,1.5c-0.4,0-0.7,0-0.9,0c1.6,1.1,3.4,1.6,5.4,1.6c2,0,3.8-0.5,5.4-1.6c1.6-1,2.7-2.3,3.4-3.8
					c0.7-1.5,1.1-3.1,1.1-4.7V52c0.7-0.5,1.3-1.2,1.7-1.8c-0.6,0.3-1.3,0.5-2,0.6C96.8,50.2,97.3,49.6,97.5,48.7z M126.4,48.5h-9.7
					c-0.5,0-0.8,0.2-1.2,0.5c-0.3,0.3-0.5,0.7-0.5,1.2v9.7c0,0.5,0.2,0.8,0.5,1.2c0.3,0.3,0.7,0.5,1.2,0.5h9.7
					c0.5,0,0.8-0.2,1.2-0.5c0.3-0.3,0.5-0.7,0.5-1.2v-9.7c0-0.5-0.2-0.8-0.5-1.2C127.2,48.6,126.8,48.5,126.4,48.5z M119.7,53.2
					c0.5-0.5,1.1-0.7,1.8-0.7c0.7,0,1.3,0.2,1.8,0.7c0.5,0.5,0.8,1.1,0.8,1.8c0,0.7-0.3,1.3-0.8,1.8c-0.5,0.5-1.1,0.7-1.8,0.7
					c-0.7,0-1.3-0.2-1.8-0.7c-0.5-0.5-0.8-1.1-0.8-1.8C118.9,54.2,119.2,53.7,119.7,53.2z M126.6,59.5c0,0.1-0.1,0.3-0.2,0.4
					c-0.1,0.1-0.2,0.1-0.4,0.1h-9c-0.1,0-0.3,0-0.4-0.1c-0.1-0.1-0.1-0.2-0.1-0.4V54h1.2c-0.1,0.4-0.2,0.7-0.2,1.1
					c0,1.1,0.4,2,1.2,2.8c0.8,0.8,1.7,1.1,2.9,1.1c0.7,0,1.4-0.2,2-0.5c0.6-0.3,1.1-0.8,1.5-1.4c0.4-0.6,0.5-1.3,0.5-2
					c0-0.4-0.1-0.8-0.2-1.1h1.1V59.5z M126.6,51.9c0,0.2-0.1,0.3-0.2,0.4c-0.1,0.1-0.3,0.2-0.4,0.2h-1.5c-0.2,0-0.3-0.1-0.4-0.2
					c-0.1-0.1-0.2-0.3-0.2-0.4v-1.4c0-0.2,0.1-0.3,0.2-0.4c0.1-0.1,0.3-0.2,0.4-0.2h1.5c0.2,0,0.3,0.1,0.4,0.2
					c0.1,0.1,0.2,0.3,0.2,0.4V51.9z M159.3,48.7c-4.6-0.3-5.9-0.4-10.6,0c-1.4,0.1-2.4,1.8-2.5,3c-0.2,2.6-0.2,4,0,6.6
					c0.1,1.2,1.1,2.8,2.5,3c4.7,0.3,6.1,0.3,10.6,0c1.4-0.2,2.4-1.8,2.5-3c0.2-2.6,0.2-4.2,0-6.7C161.7,50.3,160.9,48.8,159.3,48.7z
					 M151.5,58.2v-6.6l6.2,3.3L151.5,58.2z M190.1,49.3c-2.5-2.4-6.6-2.4-9.2,0c-2.5,2.4-2.6,6.4,0,8.8l4.6,4.4l4.6-4.4
					C192.7,55.6,192.7,51.7,190.1,49.3z M185.5,59c-3.1,0-5.6-2.4-5.6-5.3c0-2.9,2.5-5.3,5.6-5.3c3.1,0,5.6,2.4,5.6,5.3
					C191.1,56.6,188.6,59,185.5,59z M188.9,52.1c-0.7,0-1.4-0.1-2-0.1c0,0,0,0,0,0c-0.3-0.6-0.5-1.3-0.8-1.9
					c-0.1-0.3-0.6-0.3-0.8-0.1c-0.1,0.1-0.2,0.2-0.2,0.3c-0.3,0.6-0.5,1.2-0.8,1.8c-0.7,0.1-1.5,0.1-2.2,0.2c-0.3,0-0.5,0.4-0.4,0.7
					c0,0.1,0.2,0.2,0.3,0.3c0.5,0.4,1,0.8,1.5,1.2c-0.2,0.7-0.4,1.4-0.5,2.1c0,0.2,0.1,0.4,0.2,0.5c0.2,0.1,0.4,0.1,0.6,0
					c0.6-0.4,1.2-0.7,1.8-1.1c0.1,0,0.1,0,0.1,0.1c0.5,0.3,1.1,0.6,1.6,1c0.1,0.1,0.2,0.1,0.3,0.1c0.4,0,0.6-0.4,0.5-0.7
					c-0.2-0.6-0.3-1.3-0.5-1.9c0,0,0,0,0,0c0.5-0.4,1.1-0.9,1.6-1.3c0.2-0.1,0.2-0.4,0.1-0.6C189.3,52.3,189.1,52.1,188.9,52.1z"/>
			</g>
		</g>
		<g>
			<g>
				<path class="st0" d="M13.1,29.9v-3.7c0,0-6.6,0.1-7.3,7.4h3.7C9.4,33.6,9.2,30.1,13.1,29.9z M7.7,34.4c0,0-0.1,0-0.1,0
					c0,0-0.1,0-0.1,0c-3.1,0-5.4,4.5-5.4,4.5l2.1,1c1.9-2.9,3-3.2,3.4-3.2c0.1,0,0.1,0,0.1,0s0,0,0.1,0c0.4,0,1.5,0.3,3.4,3.2l2.1-1
					C13.1,38.9,10.8,34.4,7.7,34.4z M39.6,33.3h3.7C42.5,26,35.9,26,35.9,26v3.7C39.7,29.9,39.6,33.3,39.6,33.3z M41.5,34.1
					c0,0-0.1,0-0.1,0c0,0-0.1,0-0.1,0c-3.1,0-5.4,4.5-5.4,4.5l2.1,1c1.9-2.9,3-3.2,3.4-3.2c0.1,0,0.1,0,0.1,0s0,0,0.1,0
					c0.4,0,1.5,0.3,3.4,3.2l2.1-1C47,38.6,44.7,34.1,41.5,34.1z M32.5,3.5h-7.4h-0.4h-0.4h-0.4h-7.3c-1.5,0-2.8,1.3-2.8,2.8l1,10.5
					c0,1.6,1.2,2.8,2.8,2.8l7,1.1l0,0v0l7-1.1c1.5,0,2.8-1.3,2.8-2.8l1-10.5C35.2,4.8,34,3.5,32.5,3.5z M19.3,16.3
					c-1.3,0-2.4-1.5-2.4-3.4c0-1.9,1.1-3.4,2.4-3.4c1.3,0,2.4,1.5,2.4,3.4C21.7,14.8,20.6,16.3,19.3,16.3z M29.8,16.3
					c-1.4,0-2.5-1-2.5-2.3c0-1.3,1.1-2.3,2.5-2.3c1.4,0,2.5,1,2.5,2.3C32.3,15.3,31.1,16.3,29.8,16.3z M31.1,51.7V50
					c0-0.2-0.2-0.4-0.4-0.4h-3.9c-0.2,0-0.4,0.2-0.4,0.4v1.7c0,0.2,0.2,0.4,0.4,0.4h3.9C31,52.1,31.1,51.9,31.1,51.7z M30.1,52.8
					c0-0.1-0.1-0.2-0.2-0.2h-2.2c-0.1,0-0.2,0.1-0.2,0.2v1c0,0.1,0.1,0.2,0.2,0.2h2.2c0.1,0,0.2-0.1,0.2-0.2V52.8z M30.1,55.1
					c0-0.1-0.1-0.2-0.2-0.2h-2.2c-0.1,0-0.2,0.1-0.2,0.2v1c0,0.1,0.1,0.2,0.2,0.2h2.2c0.1,0,0.2-0.1,0.2-0.2V55.1z M29.9,57.1h-2.2
					c-0.1,0-0.2,0.1-0.2,0.2v1c0,0.1,0.1,0.2,0.2,0.2h2.2c0.1,0,0.2-0.1,0.2-0.2v-1C30.1,57.2,30,57.1,29.9,57.1z M22.5,51.7V50
					c0-0.2-0.2-0.4-0.4-0.4h-3.9c-0.2,0-0.4,0.2-0.4,0.4v1.7c0,0.2,0.2,0.4,0.4,0.4h3.9C22.3,52.1,22.5,51.9,22.5,51.7z M21.5,52.8
					c0-0.1-0.1-0.2-0.2-0.2H19c-0.1,0-0.2,0.1-0.2,0.2v1c0,0.1,0.1,0.2,0.2,0.2h2.2c0.1,0,0.2-0.1,0.2-0.2V52.8z M21.5,55.1
					c0-0.1-0.1-0.2-0.2-0.2H19c-0.1,0-0.2,0.1-0.2,0.2v1c0,0.1,0.1,0.2,0.2,0.2h2.2c0.1,0,0.2-0.1,0.2-0.2V55.1z M21.3,57.1H19
					c-0.1,0-0.2,0.1-0.2,0.2v1c0,0.1,0.1,0.2,0.2,0.2h2.2c0.1,0,0.2-0.1,0.2-0.2v-1C21.5,57.2,21.4,57.1,21.3,57.1z M23,61.1h-0.4
					c-0.2-1.1-1.2-2-2.4-2c-1.2,0-2.1,0.9-2.4,2h-0.4c-0.3,0-0.5,0.2-0.5,0.4v1.6c0,0.2,0.2,0.4,0.5,0.4H23c0.3,0,0.5-0.2,0.5-0.4
					v-1.6C23.5,61.3,23.3,61.1,23,61.1z M31.6,61.1h-0.4c-0.2-1.1-1.2-2-2.4-2c-1.2,0-2.1,0.9-2.4,2H26c-0.3,0-0.5,0.2-0.5,0.4v1.6
					c0,0.2,0.2,0.4,0.5,0.4h5.6c0.3,0,0.5-0.2,0.5-0.4v-1.6C32.1,61.3,31.9,61.1,31.6,61.1z M23.3,28.8l2.4,1l2.4-1l2.1,0.9v-2.1
					H18.7V29l2.1,0.8L23.3,28.8z M30.2,30.5l-2.1-0.8l-2.4,1l-2.4-1l-2.4,1l-2.1-0.9v2.3h11.5V30.5z M31.5,23.2H26h-3h-5.5
					c-2.1,0-3.7,1.7-3.7,3.8l2.8,17.6c0,2.1,1.7,3.8,3.7,3.8H23h3h2.7c2.1,0,3.7-1.7,3.7-3.8l2.8-17.6
					C35.2,24.9,33.5,23.2,31.5,23.2z M19.3,38.5c-0.9,0-1.6-0.7-1.6-1.6c0-0.9,0.7-1.6,1.6-1.6c0.9,0,1.6,0.7,1.6,1.6
					C20.9,37.8,20.2,38.5,19.3,38.5z M30.9,32.8H18v-5.9h12.9V32.8z"/>
			</g>
		</g>
		<g>
			<g id="Winlogo">
				<polygon class="st0" points="117,16.3 117,8.2 107.7,9.5 107.7,16.3 				"/>
				<polygon class="st0" points="107,9.6 100.3,10.6 100.3,16.3 107,16.3 				"/>
				<polygon class="st0" points="100.3,17 100.3,22.7 107,23.7 107,17 				"/>
				<polygon class="st0" points="107.7,23.8 117,25.2 117,17 107.7,17 				"/>
			</g>
			<g>
				<path class="st2" d="M131.7,7.4c1.4-1.8,3.3-1.8,3.3-1.8s0.3,1.7-1.1,3.3c-1.5,1.7-3.1,1.5-3.1,1.5S130.5,9,131.7,7.4z"/>
				<path class="st2" d="M130.9,11.5c0.7,0,2-1,3.7-1c2.9,0,4.1,2.1,4.1,2.1s-2.3,1.2-2.3,4c0,3.2,2.8,4.2,2.8,4.2s-2,5.5-4.6,5.5
					c-1.2,0-2.2-0.8-3.4-0.8c-1.3,0-2.6,0.9-3.5,0.9c-2.4,0-5.5-5.2-5.5-9.5c0-4.1,2.6-6.3,5-6.3C128.9,10.6,130.1,11.5,130.9,11.5z
					"/>
			</g>
			<g>
				<g>
					<path class="st0" d="M80.6,14.1v1.2h9.8l-1,5.5H79.2L76.1,9.9h-2.9v1.2h2L78.3,22h12.1l1.5-7.9H80.6z M80,23.2
						c-1,0-1.9,0.8-1.9,1.8c0,1,0.8,1.8,1.9,1.8c1,0,1.9-0.8,1.9-1.8C81.8,24,81,23.2,80,23.2z M80,25.6c-0.3,0-0.6-0.3-0.6-0.6
						c0-0.3,0.3-0.6,0.6-0.6c0.3,0,0.6,0.3,0.6,0.6C80.6,25.4,80.3,25.6,80,25.6z M88,23.2c-1,0-1.9,0.8-1.9,1.8
						c0,1,0.8,1.8,1.9,1.8c1,0,1.9-0.8,1.9-1.8C89.9,24,89,23.2,88,23.2z M88,25.6c-0.3,0-0.6-0.3-0.6-0.6c0-0.3,0.3-0.6,0.6-0.6
						c0.3,0,0.6,0.3,0.6,0.6C88.6,25.4,88.3,25.6,88,25.6z"/>
				</g>
			</g>
			<g>
				<g>
					<g>
						<path class="st0" d="M60.9,23.7c-3.8,0-6.9-3.1-6.9-6.9s3.1-6.9,6.9-6.9s6.9,3.1,6.9,6.9S64.7,23.7,60.9,23.7z M60.9,10.9
							c-3.2,0-5.8,2.6-5.8,5.8s2.6,5.8,5.8,5.8s5.8-2.6,5.8-5.8S64.1,10.9,60.9,10.9z"/>
					</g>
				</g>
				<g>
					<path class="st0" d="M69.4,26.9c-0.4,0-0.8-0.2-1.1-0.5l-3-2.9l0.7-0.8l3,2.9c0.2,0.2,0.6,0.2,0.8,0c0.1-0.1,0.2-0.2,0.2-0.4
						s-0.1-0.3-0.2-0.4l-2.9-3l0.8-0.7l2.9,3c0.3,0.3,0.5,0.7,0.5,1.1c0,0.4-0.2,0.8-0.5,1.1C70.2,26.7,69.8,26.9,69.4,26.9z"/>
				</g>
			</g>
		</g>
	</g>
</g>
</svg>
